<svg xmlns="http://www.w3.org/2000/svg" version="1.1" xmlns:xlink="http://www.w3.org/1999/xlink" xmlns:svgjs="http://svgjs.dev/svgjs" width="1000" height="623" viewBox="0 0 1000 623"><g transform="matrix(1,0,0,1,-0.6060604955520716,0.2522267206477409)"><svg viewBox="0 0 396 247" data-background-color="#ffffff" preserveAspectRatio="xMidYMid meet" height="623" width="1000" xmlns="http://www.w3.org/2000/svg" xmlns:xlink="http://www.w3.org/1999/xlink"><g id="tight-bounds" transform="matrix(1,0,0,1,0.24000004376148354,-0.09999999999999432)"><svg viewBox="0 0 395.52 247.2" height="247.2" width="395.52"><g><svg></svg></g><g><svg viewBox="0 0 395.52 247.2" height="247.2" width="395.52"><g><g><path xmlns="http://www.w3.org/2000/svg" d="M104.156 34.58h32.093l24.338 55.246h-32.085l-8.3-18.823-8.3 18.823-32.084 0zM239.404 34.58h69.28c12.056 0 22.465 1.443 31.227 4.33 8.728 2.887 15.214 6.792 19.46 11.717 8.151 9.169 12.226 19.527 12.225 31.074 0 2.859-0.186 5.567-0.558 8.125h-30.997c0.151-1.129 0.227-2.309 0.227-3.54 0-8.49-2.632-14.603-7.896-18.339-5.264-3.736-13.414-5.604-24.452-5.604h-38.46l0 27.483h-30.056z" fill="#000000" fill-rule="nonzero" stroke="none" stroke-width="1" stroke-linecap="butt" stroke-linejoin="miter" stroke-miterlimit="10" stroke-dasharray="" stroke-dashoffset="0" font-family="none" font-weight="none" font-size="none" text-anchor="none" style="mix-blend-mode: normal" data-fill-palette-color="tertiary"></path></g></g><g transform="matrix(1,0,0,1,0,97.39732750671322)"><svg viewBox="0 0 395.52 52.405344986573525" height="52.405344986573525" width="395.52"><g><svg viewBox="0 0 395.52 52.405344986573525" height="52.405344986573525" width="395.52"><g><svg viewBox="0 0 395.52 52.405344986573525" height="52.405344986573525" width="395.52"><g id="textblocktransform"><svg viewBox="0 0 395.52 52.405344986573525" height="52.405344986573525" width="395.52" id="textblock"><g><svg viewBox="0 0 395.52 32.072909512761015" height="32.072909512761015" width="395.52"><g transform="matrix(1,0,0,1,0,0)"><svg width="395.52" viewBox="-4.849999904632568 -34.95000076293945 430.9700012207031 34.95000076293945" height="32.072909512761015" data-palette-color="#000000"><path d="M36.15-2.15L41.95-2.15 41.95 0 30.8 0 27.3-7.95 9.8-7.95 6.3 0-4.85 0-4.85-2.15 0.95-2.15 15.4-34.95 21.7-34.95 36.15-2.15ZM12.2-13.4L24.9-13.4 18.55-27.8 12.2-13.4ZM75.95 0L75.95-2.15 71.1-2.15 71.1-34.95 65.2-34.95 65.2-19.8 47.85-19.8 47.85-34.95 41.95-34.95 41.95 0 47.85 0 47.85-14.3 65.2-14.3 65.2 0 75.95 0ZM37.1-2.15L41.95-2.15 41.95 0 37.1 0 37.1-2.15ZM120.25-2.15L125.1-2.15 125.1 0 114.35 0 114.35-27.3 102.15-3.05 98.85-3.05 86.7-27.3 86.7 0 75.95 0 75.95-2.15 80.8-2.15 80.8-34.95 90-34.95 100.55-13 111.09-34.95 120.25-34.95 120.25-2.15ZM125.09-2.15L129.94-2.15 129.94-34.95 154.49-34.95 154.49-29.4 135.84-29.4 135.84-20.15 152.59-20.15 152.59-14.9 135.84-14.9 135.84-5.55 155.09-5.55 155.09-2.15 159.94-2.15 159.94 0 125.09 0 125.09-2.15ZM185.34-2.15L196.89-2.15 196.89 0 157.79 0 157.79-2.15 162.64-2.15 162.64-34.95 174.64-34.95Q184.04-34.95 189.09-30.38 194.14-25.8 194.14-17.5L194.14-17.5Q194.14-6.35 185.34-2.15L185.34-2.15ZM188.19-17.5L188.19-17.5Q188.19-29.5 174.44-29.5L174.44-29.5 168.54-29.5 168.54-5.55 175.09-5.55Q181.44-5.55 184.82-8.58 188.19-11.6 188.19-17.5ZM196.89-2.15L210.59-2.15 210.59 0 196.89 0 196.89-2.15ZM239.44-2.15L245.89-2.15 245.89 0 210.59 0 210.59-2.15 215.44-2.15 215.44-34.95 229.03-34.95Q232.59-34.95 235.16-34.1 237.74-33.25 238.99-31.8L238.99-31.8Q241.39-29.1 241.39-25.7L241.39-25.7Q241.39-21.6 238.79-19.6L238.79-19.6Q237.84-18.9 237.49-18.73 237.14-18.55 236.24-18.15L236.24-18.15Q239.49-17.45 241.41-15.23 243.34-13 243.34-9.7L243.34-9.7Q243.34-4.75 239.44-2.15L239.44-2.15ZM221.34-15L221.34-5.45 230.59-5.45Q233.84-5.45 235.56-6.48 237.29-7.5 237.29-10.35L237.29-10.35Q237.29-15 229.84-15L229.84-15 221.34-15ZM221.34-29.5L221.34-20.45 228.84-20.45Q235.24-20.45 235.24-24.8L235.24-24.8Q235.24-27.3 233.69-28.4 232.14-29.5 228.89-29.5L228.89-29.5 221.34-29.5ZM281.63-2.15L287.43-2.15 287.43 0 276.28 0 272.78-7.95 255.28-7.95 251.78 0 240.63 0 240.63-2.15 246.43-2.15 260.88-34.95 267.18-34.95 281.63-2.15ZM257.68-13.4L270.38-13.4 264.03-27.8 257.68-13.4ZM315.38-2.15L320.23-2.15 320.23 0 309.43 0 301.08-11.75 293.33-11.75 293.33 0 282.58 0 282.58-2.15 287.43-2.15 287.43-34.95 300.43-34.95Q308.43-34.95 311.88-32.25 315.33-29.55 315.33-23.6L315.33-23.6Q315.33-14.95 307.78-12.7L307.78-12.7 315.38-2.15ZM300.68-17.1Q305.68-17.1 307.48-18.65 309.28-20.2 309.28-23.63 309.28-27.05 307.43-28.33 305.58-29.6 300.83-29.6L300.83-29.6 293.33-29.6 293.33-17.1 300.68-17.1ZM355.13-2.15L360.93-2.15 360.93 0 349.78 0 346.28-7.95 328.78-7.95 325.28 0 314.13 0 314.13-2.15 319.93-2.15 334.38-34.95 340.68-34.95 355.13-2.15ZM331.18-13.4L343.88-13.4 337.53-27.8 331.18-13.4ZM356.08-2.15L360.93-2.15 360.93-34.95 366.83-34.95 366.83-17.9 382.83-34.95 390.33-34.95 376.28-19.65 388.98-2.1 388.98-2.15 393.83-2.15 393.83 0 383.53 0 371.93-15.3 366.83-9.8 366.83 0 356.08 0 356.08-2.15ZM391.27-2.15L396.12-2.15 396.12-34.95 420.67-34.95 420.67-29.4 402.02-29.4 402.02-20.15 418.77-20.15 418.77-14.9 402.02-14.9 402.02-5.55 421.27-5.55 421.27-2.15 426.12-2.15 426.12 0 391.27 0 391.27-2.15Z" opacity="1" transform="matrix(1,0,0,1,0,0)" fill="#000000" class="undefined-text-0" data-fill-palette-color="primary" id="text-0"></path></svg></g></svg></g><g transform="matrix(1,0,0,1,0,39.644553698895585)"><svg viewBox="0 0 395.52 12.760791287677938" height="12.760791287677938" width="395.52"><g transform="matrix(1,0,0,1,0,0)"><svg width="395.52" viewBox="0 -35.79999923706055 1225.75 39.54999923706055" height="12.760791287677938" data-palette-color="#61777f"><path d="M25.25-2.15L31.5-2.15 31.5 0 0 0 0-2.15 6.4-2.15Q4-3.4 2-5.25L2-5.25 5.7-9.7Q11-5.1 16.7-5.1L16.7-5.1Q19.55-5.1 21.23-6.33 22.9-7.55 22.9-9.58 22.9-11.6 21.33-12.73 19.75-13.85 15.9-14.78 12.05-15.7 10.05-16.48 8.05-17.25 6.5-18.5L6.5-18.5Q3.4-20.85 3.4-25.7 3.4-30.55 6.93-33.18 10.45-35.8 15.65-35.8L15.65-35.8Q19-35.8 22.3-34.7 25.6-33.6 28-31.6L28-31.6 24.85-27.15Q23.3-28.55 20.65-29.45 18-30.35 15.43-30.35 12.85-30.35 11.2-29.3 9.55-28.25 9.55-26.13 9.55-24 11.2-22.88 12.85-21.75 18.23-20.45 23.6-19.15 26.33-16.8 29.05-14.45 29.05-10.2L29.05-10.2Q29.05-5.05 25.25-2.15L25.25-2.15ZM62.05-2.15L73.5-2.15 73.5 0 31.5 0 31.5-2.15 42.95-2.15Q38.85-4.5 36.47-8.6 34.1-12.7 34.1-17.75L34.1-17.75Q34.1-25.45 39.4-30.63 44.7-35.8 52.5-35.8 60.3-35.8 65.6-30.63 70.9-25.45 70.9-17.75L70.9-17.75Q70.9-12.75 68.52-8.6 66.15-4.45 62.05-2.15L62.05-2.15ZM61.27-26.7Q57.7-30.4 52.5-30.4 47.3-30.4 43.72-26.7 40.15-23 40.15-17.73 40.15-12.45 43.72-8.75 47.3-5.05 52.5-5.05 57.7-5.05 61.27-8.75 64.85-12.45 64.85-17.73 64.85-23 61.27-26.7ZM100.2-2.15L105.05-2.15 105.05 0 73.5 0 73.5-2.15 78.34-2.15 78.34-34.95 84.25-34.95 84.25-5.6 100.2-5.6 100.2-2.15ZM129.79-2.15L140.19-2.15 140.19 0 101.79 0 101.79-2.15 112.14-2.15Q106.19-6.3 106.19-15.3L106.19-15.3 106.19-34.95 112.09-34.95 112.09-15.55Q112.09-10.75 114.49-7.95 116.89-5.15 120.99-5.15 125.09-5.15 127.49-7.95 129.89-10.75 129.89-15.55L129.89-15.55 129.89-34.95 135.79-34.95 135.79-15.3Q135.79-6.25 129.79-2.15L129.79-2.15ZM158.24-2.15L170.39-2.15 170.39 0 140.19 0 140.19-2.15 152.34-2.15 152.34-29.55 141.74-29.55 141.74-34.95 168.84-34.95 168.84-29.55 158.24-29.55 158.24-2.15ZM170.39-2.15L175.24-2.15 175.24-34.95 181.14-34.95 181.14-2.15 185.99-2.15 185.99 0 170.39 0 170.39-2.15ZM216.53-2.15L227.98-2.15 227.98 0 185.98 0 185.98-2.15 197.43-2.15Q193.33-4.5 190.96-8.6 188.58-12.7 188.58-17.75L188.58-17.75Q188.58-25.45 193.88-30.63 199.18-35.8 206.98-35.8 214.78-35.8 220.08-30.63 225.38-25.45 225.38-17.75L225.38-17.75Q225.38-12.75 223.01-8.6 220.63-4.45 216.53-2.15L216.53-2.15ZM215.76-26.7Q212.19-30.4 206.98-30.4 201.78-30.4 198.21-26.7 194.63-23 194.63-17.73 194.63-12.45 198.21-8.75 201.78-5.05 206.98-5.05 212.19-5.05 215.76-8.75 219.33-12.45 219.33-17.73 219.33-23 215.76-26.7ZM227.98-2.15L232.83-2.15 232.83-34.95 238.73-34.95 259.03-8.85 259.03-34.95 264.93-34.95 264.93-2.15 269.78-2.15 269.78 0 258.53 0 238.73-25.5 238.73 0 227.98 0 227.98-2.15ZM295.03-2.15L301.28-2.15 301.28 0 269.78 0 269.78-2.15 276.18-2.15Q273.78-3.4 271.78-5.25L271.78-5.25 275.48-9.7Q280.78-5.1 286.48-5.1L286.48-5.1Q289.33-5.1 291-6.33 292.68-7.55 292.68-9.58 292.68-11.6 291.1-12.73 289.53-13.85 285.68-14.78 281.83-15.7 279.83-16.48 277.83-17.25 276.28-18.5L276.28-18.5Q273.18-20.85 273.18-25.7 273.18-30.55 276.7-33.18 280.23-35.8 285.43-35.8L285.43-35.8Q288.78-35.8 292.08-34.7 295.38-33.6 297.78-31.6L297.78-31.6 294.63-27.15Q293.08-28.55 290.43-29.45 287.78-30.35 285.2-30.35 282.63-30.35 280.98-29.3 279.33-28.25 279.33-26.13 279.33-24 280.98-22.88 282.63-21.75 288-20.45 293.38-19.15 296.1-16.8 298.83-14.45 298.83-10.2L298.83-10.2Q298.83-5.05 295.03-2.15L295.03-2.15ZM301.28-2.15L314.98-2.15 314.98 0 301.28 0 301.28-2.15ZM351.12-2.15L356.92-2.15 356.92 0 345.77 0 342.27-7.95 324.77-7.95 321.27 0 310.12 0 310.12-2.15 315.92-2.15 330.37-34.95 336.67-34.95 351.12-2.15ZM327.17-13.4L339.87-13.4 333.52-27.8 327.17-13.4ZM384.87-2.15L389.72-2.15 389.72 0 378.92 0 370.57-11.75 362.82-11.75 362.82 0 352.07 0 352.07-2.15 356.92-2.15 356.92-34.95 369.92-34.95Q377.92-34.95 381.37-32.25 384.82-29.55 384.82-23.6L384.82-23.6Q384.82-14.95 377.27-12.7L377.27-12.7 384.87-2.15ZM370.17-17.1Q375.17-17.1 376.97-18.65 378.77-20.2 378.77-23.63 378.77-27.05 376.92-28.33 375.07-29.6 370.32-29.6L370.32-29.6 362.82-29.6 362.82-17.1 370.17-17.1ZM418.72-2.15L425.27-2.15 425.27 0 388.47 0 388.47-2.15 399.57-2.15Q395.62-4.5 393.34-8.55 391.07-12.6 391.07-17.7L391.07-17.7Q391.07-25.4 396.39-30.6 401.72-35.8 409.84-35.8 417.97-35.8 423.42-29.8L423.42-29.8 419.67-25.7Q417.17-28.1 414.94-29.05 412.72-30 409.72-30L409.72-30Q404.42-30 400.82-26.58 397.22-23.15 397.22-17.82 397.22-12.5 400.79-8.93 404.37-5.35 409.27-5.35L409.27-5.35Q412.32-5.35 414.52-6.38 416.72-7.4 419.12-9.65L419.12-9.65 422.92-5.75Q420.72-3.35 418.72-2.15L418.72-2.15ZM464.12 0L464.12-2.15 459.27-2.15 459.27-34.95 453.37-34.95 453.37-19.8 436.02-19.8 436.02-34.95 430.12-34.95 430.12 0 436.02 0 436.02-14.3 453.37-14.3 453.37 0 464.12 0ZM425.27-2.15L430.12-2.15 430.12 0 425.27 0 425.27-2.15ZM464.12-2.15L468.97-2.15 468.97-34.95 474.87-34.95 474.87-2.15 479.72-2.15 479.72 0 464.12 0 464.12-2.15ZM497.76-2.15L509.91-2.15 509.91 0 479.71 0 479.71-2.15 491.86-2.15 491.86-29.55 481.26-29.55 481.26-34.95 508.36-34.95 508.36-29.55 497.76-29.55 497.76-2.15ZM509.91-2.15L514.76-2.15 514.76-34.95 539.31-34.95 539.31-29.4 520.66-29.4 520.66-20.15 537.41-20.15 537.41-14.9 520.66-14.9 520.66-5.55 539.91-5.55 539.91-2.15 544.76-2.15 544.76 0 509.91 0 509.91-2.15ZM572.86-2.15L579.41-2.15 579.41 0 542.61 0 542.61-2.15 553.71-2.15Q549.76-4.5 547.48-8.55 545.21-12.6 545.21-17.7L545.21-17.7Q545.21-25.4 550.53-30.6 555.86-35.8 563.98-35.8 572.11-35.8 577.56-29.8L577.56-29.8 573.81-25.7Q571.31-28.1 569.08-29.05 566.86-30 563.86-30L563.86-30Q558.56-30 554.96-26.58 551.36-23.15 551.36-17.82 551.36-12.5 554.93-8.93 558.51-5.35 563.41-5.35L563.41-5.35Q566.46-5.35 568.66-6.38 570.86-7.4 573.26-9.65L573.26-9.65 577.06-5.75Q574.86-3.35 572.86-2.15L572.86-2.15ZM597.45-2.15L609.6-2.15 609.6 0 579.4 0 579.4-2.15 591.55-2.15 591.55-29.55 580.95-29.55 580.95-34.95 608.05-34.95 608.05-29.55 597.45-29.55 597.45-2.15ZM619.5-2.15L623.55-2.15 623.55 0 618.2 0 615.95 3.75 613.05 3.75 614.35 0 609.6 0 609.6-2.15 613.9-2.15Q612.85-3.2 612.85-4.78 612.85-6.35 613.95-7.43 615.05-8.5 616.55-8.5 618.05-8.5 619.18-7.43 620.3-6.35 620.3-4.95 620.3-3.55 619.5-2.15L619.5-2.15ZM623.55-2.15L637.25-2.15 637.25 0 623.55 0 623.55-2.15ZM667.5-2.15L674.05-2.15 674.05 0 637.25 0 637.25-2.15 648.35-2.15Q644.4-4.5 642.12-8.55 639.85-12.6 639.85-17.7L639.85-17.7Q639.85-25.4 645.17-30.6 650.5-35.8 658.62-35.8 666.75-35.8 672.2-29.8L672.2-29.8 668.45-25.7Q665.95-28.1 663.72-29.05 661.5-30 658.5-30L658.5-30Q653.2-30 649.6-26.58 646-23.15 646-17.82 646-12.5 649.57-8.93 653.15-5.35 658.05-5.35L658.05-5.35Q661.1-5.35 663.3-6.38 665.5-7.4 667.9-9.65L667.9-9.65 671.7-5.75Q669.5-3.35 667.5-2.15L667.5-2.15ZM700.74-2.15L705.59-2.15 705.59 0 674.04 0 674.04-2.15 678.89-2.15 678.89-34.95 684.79-34.95 684.79-5.6 700.74-5.6 700.74-2.15ZM732.89-2.15L744.34-2.15 744.34 0 702.34 0 702.34-2.15 713.79-2.15Q709.69-4.5 707.32-8.6 704.94-12.7 704.94-17.75L704.94-17.75Q704.94-25.45 710.24-30.63 715.54-35.8 723.34-35.8 731.14-35.8 736.44-30.63 741.74-25.45 741.74-17.75L741.74-17.75Q741.74-12.75 739.37-8.6 736.99-4.45 732.89-2.15L732.89-2.15ZM732.12-26.7Q728.54-30.4 723.34-30.4 718.14-30.4 714.57-26.7 710.99-23 710.99-17.73 710.99-12.45 714.57-8.75 718.14-5.05 723.34-5.05 728.54-5.05 732.12-8.75 735.69-12.45 735.69-17.73 735.69-23 732.12-26.7ZM772.34-2.15L782.74-2.15 782.74 0 744.34 0 744.34-2.15 754.69-2.15Q748.74-6.3 748.74-15.3L748.74-15.3 748.74-34.95 754.64-34.95 754.64-15.55Q754.64-10.75 757.04-7.95 759.44-5.15 763.54-5.15 767.64-5.15 770.04-7.95 772.44-10.75 772.44-15.55L772.44-15.55 772.44-34.95 778.34-34.95 778.34-15.3Q778.34-6.25 772.34-2.15L772.34-2.15ZM810.29-2.15L821.84-2.15 821.84 0 782.74 0 782.74-2.15 787.59-2.15 787.59-34.95 799.59-34.95Q808.99-34.95 814.04-30.38 819.09-25.8 819.09-17.5L819.09-17.5Q819.09-6.35 810.29-2.15L810.29-2.15ZM813.14-17.5L813.14-17.5Q813.14-29.5 799.39-29.5L799.39-29.5 793.49-29.5 793.49-5.55 800.04-5.55Q806.39-5.55 809.76-8.58 813.14-11.6 813.14-17.5ZM821.83-2.15L835.53-2.15 835.53 0 821.83 0 821.83-2.15ZM846.28-2.15L869.73-2.15 869.73 0 835.53 0 835.53-2.15 840.38-2.15 840.38-34.95 852.38-34.95Q860.33-34.95 863.98-31.9 867.63-28.85 867.63-22.5 867.63-16.15 863.91-13.2 860.18-10.25 852.48-10.25L852.48-10.25 846.28-10.25 846.28-2.15ZM853.13-15.6Q858.03-15.6 859.81-17.48 861.58-19.35 861.58-22.98 861.58-26.6 859.33-28.1 857.08-29.6 852.28-29.6L852.28-29.6 846.28-29.6 846.28-15.6 853.13-15.6ZM902.53-2.15L907.38-2.15 907.38 0 896.58 0 888.23-11.75 880.48-11.75 880.48 0 869.73 0 869.73-2.15 874.58-2.15 874.58-34.95 887.58-34.95Q895.58-34.95 899.03-32.25 902.48-29.55 902.48-23.6L902.48-23.6Q902.48-14.95 894.93-12.7L894.93-12.7 902.53-2.15ZM887.83-17.1Q892.83-17.1 894.63-18.65 896.43-20.2 896.43-23.63 896.43-27.05 894.58-28.33 892.73-29.6 887.98-29.6L887.98-29.6 880.48-29.6 880.48-17.1 887.83-17.1ZM942.28-2.15L948.08-2.15 948.08 0 936.93 0 933.43-7.95 915.93-7.95 912.43 0 901.28 0 901.28-2.15 907.08-2.15 921.53-34.95 927.83-34.95 942.28-2.15ZM918.33-13.4L931.03-13.4 924.68-27.8 918.33-13.4ZM973.47-2.15L980.02-2.15 980.02 0 943.22 0 943.22-2.15 954.32-2.15Q950.37-4.5 948.1-8.55 945.82-12.6 945.82-17.7L945.82-17.7Q945.82-25.4 951.15-30.6 956.47-35.8 964.6-35.8 972.72-35.8 978.17-29.8L978.17-29.8 974.42-25.7Q971.92-28.1 969.7-29.05 967.47-30 964.47-30L964.47-30Q959.17-30 955.57-26.58 951.97-23.15 951.97-17.82 951.97-12.5 955.55-8.93 959.12-5.35 964.02-5.35L964.02-5.35Q967.07-5.35 969.27-6.38 971.47-7.4 973.87-9.65L973.87-9.65 977.67-5.75Q975.47-3.35 973.47-2.15L973.47-2.15ZM998.07-2.15L1010.22-2.15 1010.22 0 980.02 0 980.02-2.15 992.17-2.15 992.17-29.55 981.57-29.55 981.57-34.95 1008.67-34.95 1008.67-29.55 998.07-29.55 998.07-2.15ZM1010.22-2.15L1015.07-2.15 1015.07-34.95 1020.97-34.95 1020.97-2.15 1025.82-2.15 1025.82 0 1010.22 0 1010.22-2.15ZM1043.87-2.15L1056.02-2.15 1056.02 0 1025.82 0 1025.82-2.15 1037.97-2.15 1037.97-29.55 1027.37-29.55 1027.37-34.95 1054.47-34.95 1054.47-29.55 1043.87-29.55 1043.87-2.15ZM1056.01-2.15L1060.86-2.15 1060.86-34.95 1066.76-34.95 1066.76-2.15 1071.61-2.15 1071.61 0 1056.01 0 1056.01-2.15ZM1102.16-2.15L1113.61-2.15 1113.61 0 1071.61 0 1071.61-2.15 1083.06-2.15Q1078.96-4.5 1076.59-8.6 1074.21-12.7 1074.21-17.75L1074.21-17.75Q1074.21-25.45 1079.51-30.63 1084.81-35.8 1092.61-35.8 1100.41-35.8 1105.71-30.63 1111.01-25.45 1111.01-17.75L1111.01-17.75Q1111.01-12.75 1108.64-8.6 1106.26-4.45 1102.16-2.15L1102.16-2.15ZM1101.39-26.7Q1097.81-30.4 1092.61-30.4 1087.41-30.4 1083.84-26.7 1080.26-23 1080.26-17.73 1080.26-12.45 1083.84-8.75 1087.41-5.05 1092.61-5.05 1097.81-5.05 1101.39-8.75 1104.96-12.45 1104.96-17.73 1104.96-23 1101.39-26.7ZM1113.61-2.15L1118.46-2.15 1118.46-34.95 1124.36-34.95 1144.66-8.85 1144.66-34.95 1150.56-34.95 1150.56-2.15 1155.41-2.15 1155.41 0 1144.16 0 1124.36-25.5 1124.36 0 1113.61 0 1113.61-2.15ZM1155.41-2.15L1160.26-2.15 1160.26-34.95 1184.81-34.95 1184.81-29.4 1166.16-29.4 1166.16-20.15 1182.91-20.15 1182.91-14.9 1166.16-14.9 1166.16-5.55 1185.41-5.55 1185.41-2.15 1190.26-2.15 1190.26 0 1155.41 0 1155.41-2.15ZM1220.9-2.15L1225.75-2.15 1225.75 0 1214.95 0 1206.6-11.75 1198.85-11.75 1198.85 0 1188.1 0 1188.1-2.15 1192.95-2.15 1192.95-34.95 1205.95-34.95Q1213.95-34.95 1217.4-32.25 1220.85-29.55 1220.85-23.6L1220.85-23.6Q1220.85-14.95 1213.3-12.7L1213.3-12.7 1220.9-2.15ZM1206.2-17.1Q1211.2-17.1 1213-18.65 1214.8-20.2 1214.8-23.63 1214.8-27.05 1212.95-28.33 1211.1-29.6 1206.35-29.6L1206.35-29.6 1198.85-29.6 1198.85-17.1 1206.2-17.1Z" opacity="1" transform="matrix(1,0,0,1,0,0)" fill="#61777f" class="undefined-text-1" data-fill-palette-color="secondary" id="text-1"></path></svg></g></svg></g></svg></g></svg></g><g></g></svg></g></svg></g></svg></g><defs></defs></svg><rect width="395.52" height="247.2" fill="none" stroke="none" visibility="hidden"></rect></g></svg></g></svg>