<?xml version="1.0" encoding="UTF-8"?>
<svg id="Layer_2" data-name="Layer 2" xmlns="http://www.w3.org/2000/svg" viewBox="0 0 698.28 203.44">
  <defs>
    <style>
      .cls-1 {
        fill: #fff;
      }
    </style>
  </defs>
  <g id="Layer_1-2" data-name="Layer 1">
    <path class="cls-1" d="m183.87,0h56.66l42.97,97.54h-56.65l-14.65-33.23-14.66,33.23h-56.64L183.87,0Zm238.79,0h122.32c21.28,0,39.66,2.55,55.13,7.64,15.41,5.1,26.86,11.99,34.36,20.69,14.39,16.19,21.59,34.48,21.59,54.86,0,5.05-.33,9.83-.99,14.35h-54.73c.27-2,.4-4.08.4-6.25,0-14.99-4.65-25.78-13.94-32.38-9.3-6.6-23.68-9.9-43.17-9.9h-67.91v48.52h-53.07V0Z"/>
    <path class="cls-1" d="m66.43,164.05h9.4v3.48h-18.07l-5.67-12.88h-28.35l-5.67,12.88H0v-3.48h9.4l23.41-53.14h10.21l23.41,53.14Zm-38.81-18.23h20.58l-10.29-23.33-10.29,23.33Zm103.29,21.71v-3.48h-7.86v-53.14h-9.56v24.55h-28.11v-24.55h-9.56v56.63h9.56v-23.17h28.11v23.17h17.41Zm-62.95-3.48h7.86v3.48h-7.86v-3.48Zm134.72,0h7.86v3.48h-17.42v-44.23l-19.77,39.29h-5.35l-19.69-39.29v44.23h-17.42v-3.48h7.86v-53.14h14.91l17.09,35.56,17.08-35.56h14.84v53.14Zm7.84,0h7.86v-53.14h39.77v8.99h-30.21v14.99h27.14v8.5h-27.14v15.15h31.19v5.51h7.86v3.48h-56.46v-3.48Zm97.62,0h18.71v3.48h-63.35v-3.48h7.86v-53.14h19.44c10.16,0,17.96,2.47,23.41,7.4,5.45,4.95,8.18,11.91,8.18,20.87,0,12.04-4.75,20.33-14.26,24.87h0Zm4.62-24.87c0-12.96-7.43-19.45-22.28-19.45h-9.56v38.8h10.61c6.86,0,12.11-1.63,15.77-4.91,3.64-3.26,5.46-8.08,5.46-14.45h0Zm14.09,24.87h22.2v3.48h-22.2v-3.48Zm68.94,0h10.45v3.48h-57.19v-3.48h7.86v-53.14h22.02c3.85,0,7.16.46,9.93,1.38,2.79.92,4.86,2.16,6.21,3.73,2.59,2.92,3.89,6.21,3.89,9.89,0,4.43-1.4,7.72-4.21,9.88-1.03.75-1.73,1.23-2.11,1.41-.38.19-1.05.51-2.02.94,3.51.76,6.3,2.33,8.38,4.73,2.09,2.41,3.13,5.4,3.13,8.96,0,5.35-2.1,9.43-6.32,12.23h0Zm-29.32-20.82v15.47h14.98c3.51,0,6.2-.55,8.05-1.67,1.87-1.1,2.8-3.19,2.8-6.27,0-5.02-4.02-7.53-12.07-7.53h-13.77Zm0-23.5v14.66h12.15c6.91,0,10.37-2.35,10.37-7.05,0-2.7-.84-4.64-2.51-5.83-1.67-1.19-4.27-1.79-7.78-1.79h-12.23Zm97.68,44.32h9.4v3.48h-18.07l-5.67-12.88h-28.36l-5.67,12.88h-18.07v-3.48h9.4l23.41-53.14h10.21l23.41,53.14Zm-38.8-18.23h20.58l-10.29-23.33-10.29,23.33Zm93.49,18.23h7.86v3.48h-17.5l-13.53-19.04h-12.55v19.04h-17.42v-3.48h7.86v-53.14h21.06c8.64,0,14.83,1.46,18.55,4.38,3.73,2.91,5.59,7.59,5.59,14.02,0,9.34-4.08,15.23-12.23,17.66l12.32,17.09Zm-23.82-24.22c5.4,0,9.07-.84,11.02-2.51,1.95-1.68,2.92-4.36,2.92-8.07s-1-6.23-3-7.61c-2-1.37-5.56-2.06-10.69-2.06h-12.15v20.25h11.91Zm88.22,24.22h9.4v3.48h-18.07l-5.67-12.88h-28.35l-5.67,12.88h-18.07v-3.48h9.4l23.41-53.14h10.21l23.41,53.14Zm-38.8-18.23h20.58l-10.29-23.33-10.29,23.33Zm40.34,18.23h7.86v-53.14h9.56v27.62l25.93-27.62h12.15l-22.77,24.79,20.58,28.43v-.08h7.86v3.48h-16.69l-18.79-24.79-8.27,8.91v15.88h-17.42v-3.48Zm57.02,0h7.85v-53.14h39.78v8.99h-30.21v14.99h27.14v8.5h-27.14v15.15h31.19v5.51h7.86v3.48h-56.47v-3.48Z"/>
    <path class="cls-1" d="m14.39,200.07h3.56v1.23H0v-1.23h3.64c-.91-.47-1.75-1.06-2.5-1.77l2.11-2.54c2.01,1.75,4.1,2.62,6.27,2.62,1.08,0,1.94-.23,2.58-.7.64-.46.95-1.08.95-1.85s-.3-1.37-.89-1.8c-.6-.43-1.63-.81-3.09-1.17-1.46-.35-2.57-.67-3.33-.97-.76-.29-1.43-.68-2.02-1.15-1.18-.9-1.77-2.26-1.77-4.1s.67-3.26,2.01-4.26c1.34-1,2.99-1.49,4.96-1.49,1.27,0,2.54.21,3.79.62,1.25.42,2.33,1.01,3.25,1.77l-1.79,2.53c-.59-.53-1.39-.97-2.39-1.31-1.01-.34-2-.51-2.98-.51s-1.78.2-2.41.6c-.62.4-.94,1-.94,1.81s.31,1.43.94,1.85c.63.43,1.96.89,4.01,1.38,2.04.5,3.57,1.19,4.61,2.08,1.03.89,1.55,2.14,1.55,3.76,0,1.96-.72,3.48-2.17,4.59h0Zm20.97,0h6.52v1.23h-23.93v-1.23h6.52c-1.56-.89-2.79-2.12-3.69-3.68-.9-1.55-1.35-3.29-1.35-5.21,0-2.92,1.01-5.37,3.02-7.34,2.01-1.96,4.5-2.94,7.46-2.94s5.45.98,7.46,2.94c2.01,1.97,3.02,4.41,3.02,7.34,0,1.9-.45,3.64-1.35,5.21-.9,1.58-2.13,2.8-3.69,3.68h0Zm-.45-13.98c-1.36-1.41-3.02-2.11-5-2.11s-3.64.7-5,2.11c-1.36,1.41-2.04,3.11-2.04,5.11s.68,3.71,2.04,5.12c1.36,1.4,3.03,2.11,5,2.11s3.64-.7,5-2.11c1.36-1.41,2.04-3.11,2.04-5.12s-.68-3.7-2.04-5.11h0Zm22.18,13.98h2.76v1.23h-17.97v-1.23h2.76v-18.68h3.37v16.72h9.09v1.97Zm16.86,0h5.93v1.23h-21.88v-1.23h5.89c-2.26-1.57-3.39-4.07-3.39-7.49v-11.19h3.36v11.05c0,1.83.45,3.27,1.37,4.33.91,1.07,2.14,1.6,3.7,1.6s2.79-.53,3.7-1.6c.91-1.06,1.37-2.5,1.37-4.33v-11.05h3.36v11.19c0,3.44-1.14,5.94-3.42,7.49h0Zm16.21,0h6.92v1.23h-17.2v-1.23h6.92v-15.61h-6.04v-3.07h15.44v3.07h-6.04v15.61Zm6.92,0h2.76v-18.68h3.36v18.68h2.76v1.23h-8.89v-1.23Zm26.28,0h6.52v1.23h-23.93v-1.23h6.52c-1.55-.89-2.78-2.12-3.68-3.68-.91-1.55-1.36-3.29-1.36-5.21,0-2.92,1-5.37,3.02-7.34,2.02-1.96,4.5-2.94,7.47-2.94s5.45.98,7.46,2.94c2.02,1.97,3.02,4.41,3.02,7.34,0,1.9-.45,3.64-1.35,5.21-.91,1.58-2.14,2.8-3.69,3.68h0Zm-.44-13.98c-1.36-1.41-3.02-2.11-5-2.11s-3.64.7-5,2.11c-1.36,1.41-2.04,3.11-2.04,5.11s.68,3.71,2.04,5.12c1.36,1.4,3.02,2.11,5,2.11s3.64-.7,5-2.11c1.35-1.41,2.04-3.11,2.04-5.12s-.68-3.7-2.04-5.11h0Zm6.96,13.98h2.77v-18.68h3.36l11.57,14.87v-14.87h3.36v18.68h2.76v1.23h-6.41l-11.28-14.53v14.53h-6.13v-1.23Zm38.2,0h3.56v1.23h-17.94v-1.23h3.65c-.91-.47-1.75-1.06-2.51-1.77l2.11-2.54c2.01,1.75,4.1,2.62,6.27,2.62,1.08,0,1.94-.23,2.57-.7.64-.46.96-1.08.96-1.85s-.3-1.37-.9-1.8c-.6-.43-1.63-.81-3.09-1.17-1.46-.35-2.57-.67-3.33-.97-.76-.29-1.43-.68-2.02-1.15-1.18-.9-1.77-2.26-1.77-4.1s.67-3.26,2-4.26c1.34-1,3-1.49,4.98-1.49,1.27,0,2.54.21,3.78.62,1.25.42,2.34,1.01,3.25,1.77l-1.8,2.53c-.59-.53-1.39-.97-2.39-1.31-1.01-.34-2-.51-2.98-.51s-1.78.2-2.4.6c-.63.4-.94,1-.94,1.81s.31,1.43.94,1.85c.62.43,1.96.89,4,1.38,2.04.5,3.58,1.19,4.62,2.08,1.04.89,1.55,2.14,1.55,3.76,0,1.96-.72,3.48-2.16,4.59h0Zm3.56,0h7.81v1.23h-7.81v-1.23Zm28.39,0h3.3v1.23h-6.35l-1.99-4.53h-9.97l-2,4.53h-6.35v-1.23h3.3l8.23-18.68h3.59l8.23,18.68Zm-13.64-6.41h7.23l-3.62-8.2-3.62,8.2Zm32.87,6.41h2.77v1.23h-6.15l-4.76-6.7h-4.41v6.7h-6.13v-1.23h2.76v-18.68h7.41c3.04,0,5.21.51,6.52,1.54,1.31,1.02,1.96,2.67,1.96,4.92,0,3.29-1.43,5.36-4.3,6.21l4.33,6.01Zm-8.37-8.52c1.9,0,3.19-.29,3.87-.88.68-.59,1.03-1.53,1.03-2.84s-.35-2.19-1.05-2.68c-.7-.48-1.96-.72-3.76-.72h-4.27v7.12h4.19Zm27.66,8.52h3.73v1.23h-20.96v-1.23h6.32c-1.5-.89-2.68-2.1-3.55-3.64-.86-1.54-1.29-3.28-1.29-5.22,0-2.92,1.01-5.37,3.03-7.35,2.03-1.97,4.58-2.96,7.66-2.96s5.66,1.14,7.73,3.42l-2.14,2.34c-.95-.91-1.85-1.55-2.69-1.91-.84-.36-1.84-.54-2.98-.54-2.01,0-3.7.65-5.07,1.94-1.37,1.31-2.05,2.97-2.05,4.99s.68,3.71,2.03,5.06c1.36,1.36,2.97,2.04,4.83,2.04,1.16,0,2.16-.2,2.99-.59.84-.39,1.71-1.01,2.62-1.86l2.16,2.22c-.83.91-1.63,1.59-2.39,2.05h0Zm25.86,1.23v-1.23h-2.77v-18.68h-3.36v8.63h-9.88v-8.63h-3.36v19.91h3.36v-8.15h9.88v8.15h6.12Zm-22.13-1.23h2.76v1.23h-2.76v-1.23Zm22.13,0h2.76v-18.68h3.36v18.68h2.76v1.23h-8.89v-1.23Zm19.16,0h6.92v1.23h-17.21v-1.23h6.92v-15.61h-6.04v-3.07h15.44v3.07h-6.04v15.61Zm6.92,0h2.76v-18.68h13.98v3.16h-10.63v5.27h9.54v2.99h-9.54v5.33h10.97v1.94h2.76v1.23h-19.85v-1.23Zm35.86,0h3.73v1.23h-20.96v-1.23h6.32c-1.5-.89-2.68-2.1-3.55-3.64-.86-1.54-1.29-3.28-1.29-5.22,0-2.92,1.01-5.37,3.03-7.35,2.03-1.97,4.58-2.96,7.66-2.96s5.66,1.14,7.73,3.42l-2.14,2.34c-.95-.91-1.85-1.55-2.69-1.91-.84-.36-1.84-.54-2.98-.54-2.01,0-3.7.65-5.07,1.94-1.37,1.31-2.05,2.97-2.05,4.99s.68,3.71,2.04,5.06c1.36,1.36,2.97,2.04,4.83,2.04,1.16,0,2.15-.2,2.99-.59.84-.39,1.71-1.01,2.62-1.86l2.16,2.22c-.84.91-1.63,1.59-2.39,2.05h0Zm14.01,0h6.92v1.23h-17.2v-1.23h6.92v-15.61h-6.03v-3.07h15.44v3.07h-6.04v15.61Zm12.56,0h2.3v1.23h-3.05l-1.28,2.14h-1.65l.74-2.14h-2.7v-1.23h2.45c-.4-.4-.6-.9-.6-1.5s.21-1.1.63-1.51c.42-.41.91-.61,1.48-.61s1.07.2,1.5.61c.43.41.64.88.64,1.41s-.15,1.06-.45,1.59h0Zm2.3,0h7.8v1.23h-7.8v-1.23Zm25.04,0h3.73v1.23h-20.97v-1.23h6.32c-1.5-.89-2.68-2.1-3.55-3.64-.86-1.54-1.29-3.28-1.29-5.22,0-2.92,1.01-5.37,3.03-7.35,2.02-1.97,4.58-2.96,7.66-2.96s5.66,1.14,7.73,3.42l-2.14,2.34c-.95-.91-1.85-1.55-2.69-1.91-.84-.36-1.83-.54-2.97-.54-2.01,0-3.7.65-5.07,1.94-1.37,1.31-2.05,2.97-2.05,4.99s.68,3.71,2.03,5.06c1.36,1.36,2.97,2.04,4.83,2.04,1.16,0,2.16-.2,2.99-.59.84-.39,1.71-1.01,2.62-1.86l2.16,2.22c-.84.91-1.63,1.59-2.39,2.05h0Zm18.93,0h2.76v1.23h-17.97v-1.23h2.77v-18.68h3.36v16.72h9.09v1.97Zm18.32,0h6.52v1.23h-23.93v-1.23h6.52c-1.55-.89-2.79-2.12-3.68-3.68-.91-1.55-1.36-3.29-1.36-5.21,0-2.92,1-5.37,3.02-7.34,2.01-1.96,4.5-2.94,7.46-2.94s5.45.98,7.46,2.94c2.01,1.97,3.02,4.41,3.02,7.34,0,1.9-.45,3.64-1.35,5.21-.91,1.58-2.14,2.8-3.69,3.68h0Zm-.44-13.98c-1.36-1.41-3.02-2.11-5-2.11s-3.64.7-5,2.11c-1.36,1.41-2.04,3.11-2.04,5.11s.68,3.71,2.04,5.12c1.35,1.4,3.02,2.11,5,2.11s3.64-.7,5-2.11c1.36-1.41,2.03-3.11,2.03-5.12s-.68-3.7-2.03-5.11h0Zm22.91,13.98h5.93v1.23h-21.88v-1.23h5.89c-2.26-1.57-3.39-4.07-3.39-7.49v-11.19h3.36v11.05c0,1.83.45,3.27,1.37,4.33.91,1.07,2.15,1.6,3.7,1.6s2.79-.53,3.7-1.6c.92-1.06,1.37-2.5,1.37-4.33v-11.05h3.36v11.19c0,3.44-1.14,5.94-3.42,7.49h0Zm21.62,0h6.58v1.23h-22.27v-1.23h2.76v-18.68h6.84c3.57,0,6.31.87,8.23,2.6,1.92,1.74,2.88,4.19,2.88,7.34,0,4.23-1.67,7.15-5.02,8.74h0Zm1.63-8.74c0-4.56-2.61-6.84-7.83-6.84h-3.36v13.64h3.73c2.41,0,4.26-.58,5.54-1.73,1.29-1.14,1.93-2.84,1.93-5.08h0Zm4.95,8.74h7.8v1.23h-7.8v-1.23Zm13.93,0h13.36v1.23h-19.48v-1.23h2.76v-18.68h6.84c3.02,0,5.22.58,6.61,1.74,1.39,1.16,2.08,2.94,2.08,5.35s-.7,4.18-2.12,5.3c-1.42,1.12-3.59,1.68-6.51,1.68h-3.53v4.61Zm3.9-7.66c1.86,0,3.13-.36,3.8-1.07.67-.71,1.01-1.75,1.01-3.13s-.43-2.34-1.28-2.91c-.86-.57-2.19-.86-4.02-.86h-3.42v7.98h3.9Zm28.14,7.66h2.76v1.23h-6.15l-4.75-6.7h-4.42v6.7h-6.12v-1.23h2.76v-18.68h7.41c3.04,0,5.21.51,6.52,1.54,1.31,1.02,1.96,2.67,1.96,4.92,0,3.29-1.43,5.36-4.3,6.21l4.33,6.01Zm-8.38-8.52c1.9,0,3.19-.29,3.88-.88.68-.59,1.02-1.53,1.02-2.84s-.35-2.19-1.05-2.68c-.7-.48-1.96-.72-3.76-.72h-4.27v7.12h4.19Zm31.02,8.52h3.3v1.23h-6.35l-2-4.53h-9.97l-1.99,4.53h-6.35v-1.23h3.31l8.23-18.68h3.59l8.23,18.68Zm-13.65-6.41h7.23l-3.62-8.2-3.62,8.2Zm31.41,6.41h3.73v1.23h-20.96v-1.23h6.32c-1.5-.89-2.68-2.1-3.54-3.64-.87-1.54-1.3-3.28-1.3-5.22,0-2.92,1.01-5.37,3.04-7.35,2.02-1.97,4.57-2.96,7.66-2.96s5.66,1.14,7.73,3.42l-2.14,2.34c-.95-.91-1.84-1.55-2.69-1.91-.85-.36-1.84-.54-2.98-.54-2.01,0-3.7.65-5.07,1.94-1.37,1.31-2.05,2.97-2.05,4.99s.68,3.71,2.04,5.06c1.36,1.36,2.97,2.04,4.82,2.04,1.16,0,2.16-.2,2.99-.59.84-.39,1.71-1.01,2.62-1.86l2.16,2.22c-.84.91-1.63,1.59-2.39,2.05h0Zm14.01,0h6.92v1.23h-17.2v-1.23h6.92v-15.61h-6.04v-3.07h15.44v3.07h-6.04v15.61Zm6.92,0h2.76v-18.68h3.36v18.68h2.76v1.23h-8.89v-1.23Zm19.17,0h6.92v1.23h-17.2v-1.23h6.92v-15.61h-6.04v-3.07h15.44v3.07h-6.04v15.61Zm6.92,0h2.76v-18.68h3.36v18.68h2.77v1.23h-8.89v-1.23Zm26.29,0h6.52v1.23h-23.93v-1.23h6.52c-1.56-.89-2.79-2.12-3.69-3.68-.9-1.55-1.35-3.29-1.35-5.21,0-2.92,1.01-5.37,3.02-7.34,2.01-1.96,4.5-2.94,7.46-2.94s5.45.98,7.47,2.94c2.01,1.97,3.02,4.41,3.02,7.34,0,1.9-.45,3.64-1.35,5.21-.9,1.58-2.13,2.8-3.69,3.68h0Zm-.44-13.98c-1.36-1.41-3.03-2.11-5-2.11s-3.64.7-5,2.11c-1.36,1.41-2.04,3.11-2.04,5.11s.68,3.71,2.04,5.12c1.36,1.4,3.02,2.11,5,2.11s3.65-.7,5-2.11c1.36-1.41,2.03-3.11,2.03-5.12s-.67-3.7-2.03-5.11h0Zm6.96,13.98h2.76v-18.68h3.36l11.56,14.87v-14.87h3.36v18.68h2.77v1.23h-6.41l-11.28-14.53v14.53h-6.12v-1.23Zm23.81,0h2.76v-18.68h13.99v3.16h-10.63v5.27h9.54v2.99h-9.54v5.33h10.97v1.94h2.76v1.23h-19.85v-1.23Zm37.3,0h2.77v1.23h-6.15l-4.76-6.7h-4.41v6.7h-6.12v-1.23h2.76v-18.68h7.41c3.04,0,5.22.51,6.52,1.54,1.31,1.02,1.96,2.67,1.96,4.92,0,3.29-1.43,5.36-4.3,6.21l4.33,6.01Zm-8.37-8.52c1.9,0,3.19-.29,3.87-.88.68-.59,1.03-1.53,1.03-2.84s-.35-2.19-1.06-2.68c-.7-.48-1.96-.72-3.76-.72h-4.27v7.12h4.19Z"/>
  </g>
</svg>